<svg width="643" height="300" viewBox="0 0 643 300" fill="none" xmlns="http://www.w3.org/2000/svg">
<path d="M-21.6281 197.034L618.573 195.605L618.45 99.3535L-21.751 100.783L-22.3044 102.073C-36.8146 133.081 -36.5533 166.133 -21.5666 197.003L-21.6281 197.034Z" fill="#FF6B71"/>
<path d="M579.354 101L48.9166 99.9959C48.5443 99.9896 48.1901 99.8679 47.9311 99.6572C47.6721 99.4466 47.5292 99.164 47.5333 98.8709C47.5333 98.8709 18.4924 77.5474 19.9938 49.9925C21.4951 22.4376 36.8815 20.209 47.7024 1.12504C47.7003 0.978888 47.7349 0.833848 47.8041 0.698207C47.8733 0.562567 47.9758 0.438982 48.1056 0.33451C48.2355 0.230038 48.3903 0.146726 48.5611 0.08933C48.7319 0.0319345 48.9153 0.00158003 49.101 0L579.539 1.01617C579.724 1.01775 579.908 1.0481 580.079 1.1055C580.25 1.1629 580.404 1.24621 580.534 1.35068C580.664 1.45515 580.766 1.57874 580.836 1.71438C580.905 1.85002 580.939 1.99506 580.937 2.14121L580.753 99.887C580.755 100.033 580.72 100.177 580.651 100.312C580.582 100.447 580.479 100.57 580.349 100.673C580.219 100.777 580.064 100.859 579.893 100.915C579.722 100.971 579.539 101 579.354 101Z" fill="#D5873F"/>
<ellipse cx="55.9375" cy="50" rx="36" ry="50" fill="#D5873F"/>
<path d="M508.767 101L502.938 100.988L503.094 1L508.938 1.01205L508.767 101Z" fill="#FFC478"/>
<path d="M534.739 101L527.938 100.988L528.136 1L534.938 1.01205L534.739 101Z" fill="#FFC478"/>
<path d="M641.382 300.001L38.1025 298.464C37.9175 298.462 37.7347 298.423 37.5647 298.35C37.3948 298.277 37.241 298.171 37.1124 298.038C36.9837 297.905 36.8827 297.748 36.8152 297.576C36.7477 297.404 36.715 297.22 36.7191 297.035L36.8574 196.312C36.8574 195.94 37.0043 195.583 37.2662 195.318C37.5281 195.053 37.8838 194.902 38.2562 194.898L641.536 196.435C641.722 196.437 641.905 196.476 642.076 196.548C642.247 196.621 642.402 196.727 642.532 196.86C642.661 196.993 642.764 197.15 642.833 197.322C642.902 197.494 642.937 197.678 642.935 197.864L642.781 298.587C642.781 298.959 642.634 299.317 642.372 299.581C642.111 299.846 641.755 299.997 641.382 300.001Z" fill="#75CFB8"/>
<path d="M134.38 298.801L70.959 298.647L71.1127 195.051L134.518 195.204L134.38 298.801Z" fill="#2F1728"/>
<path d="M149.21 195.244L148.957 298.84L163.052 298.874L163.305 195.278L149.21 195.244Z" fill="#2F1728"/>
<path d="M216.706 247.203C216.616 250.739 215.483 254.169 213.452 257.065C211.42 259.961 208.579 262.193 205.284 263.483C201.989 264.772 198.387 265.061 194.928 264.314C191.47 263.566 188.309 261.816 185.841 259.281C183.373 256.746 181.708 253.54 181.054 250.064C180.4 246.588 180.786 242.996 182.165 239.738C183.543 236.481 185.852 233.702 188.803 231.75C191.754 229.797 195.215 228.759 198.753 228.764C201.145 228.788 203.509 229.285 205.709 230.226C207.908 231.167 209.9 232.534 211.569 234.248C213.237 235.962 214.55 237.989 215.432 240.212C216.314 242.436 216.747 244.811 216.706 247.203Z" fill="#2F1728"/>
<path d="M122.53 196L93.9375 195.847L93.9868 100.152L122.579 100.305L122.53 196Z" fill="#FFF5DA"/>
<path d="M162.888 195.848L134.296 195.695L134.345 100L162.938 100.153L162.888 195.848Z" fill="#FFF5DA"/>
<path opacity="0.11" d="M91.748 99.3535L607.244 100.798C608.366 103.118 609.473 105.607 610.534 108.25C612.745 113.782 614.533 119.473 615.883 125.276L91.748 99.3535Z" fill="#2F2C2C"/>
<path opacity="0.11" d="M34.2754 194.605L637.648 195.988C639.77 201.671 641.536 207.48 642.935 213.383L34.9363 197.248L34.2754 194.605Z" fill="#272424"/>
</svg>
