<svg width="386" height="449" viewBox="0 0 386 449" fill="none" xmlns="http://www.w3.org/2000/svg">
<g clip-path="url(#clip0)">
<path d="M338.748 278.04L300.196 296.542L317.174 269.549L355.697 251.049L338.748 278.04Z" fill="#2F1728"/>
<path d="M355.697 251.046L317.173 269.547L54.7676 40.9238L93.2981 22.146L355.697 251.046Z" fill="#2F1728"/>
<path d="M338.749 278.038L300.196 296.54L217.688 224.574L256.252 205.985L338.749 278.038Z" fill="#FF6B71"/>
<path d="M339.098 279.21L300.546 297.711L218.037 225.746L256.595 207.164L339.098 279.21Z" fill="#2F1728"/>
<path d="M231.395 181.929L192.831 200.548L116.518 134.029L155.087 115.331L231.395 181.929Z" fill="#FF6B71"/>
<path d="M230.331 181.87L191.767 200.488L116.393 134.789L154.947 116.091L230.331 181.87Z" fill="#2F1728"/>
<path d="M211.063 277.386L172.433 295.97L217.693 224.583L256.25 205.986L211.063 277.386Z" fill="#2F1728"/>
<path d="M267.238 391.945L228.569 410.45L172.434 295.969L211.064 277.385L267.238 391.945Z" fill="#2F1728"/>
<path d="M192.681 242.936L154.066 261.549L192.83 200.546L231.394 181.927L192.681 242.936Z" fill="#2F1728"/>
<path d="M192.569 241.383L153.947 260.003L191.767 200.489L230.331 181.87L192.569 241.383Z" fill="#2F1728"/>
<path d="M155.08 115.339L116.518 134.03C115.652 133.209 114.721 132.455 113.827 131.663C112.932 130.872 112.037 130.095 111.165 129.311C110.292 128.526 109.405 127.741 108.532 126.957C107.659 126.172 106.801 125.387 105.936 124.609L144.532 105.866C145.377 106.666 146.221 107.466 147.129 108.214C148.037 108.961 148.874 109.783 149.762 110.567C150.649 111.352 151.529 112.143 152.424 112.935C153.319 113.726 154.213 114.503 155.115 115.302" fill="#2F1728"/>
<path d="M144.497 105.902L105.9 124.646C102.915 121.93 99.9841 119.223 97.1067 116.524C94.2292 113.825 91.3983 111.141 88.614 108.474C85.8129 105.819 83.0418 103.192 80.3493 100.512C77.6568 97.8325 74.9376 95.2408 72.2392 92.6122L110.821 73.8548C113.497 76.4573 116.2 79.0907 118.931 81.7549C121.688 84.3674 124.41 87.061 127.196 89.7309C129.983 92.4009 132.828 95.0692 135.697 97.788C138.565 100.507 141.491 103.195 144.483 105.917" fill="#2F1728"/>
<path d="M192.682 242.937L154.067 261.55L102.412 155.103L140.996 136.404L192.682 242.937Z" fill="#2F1728"/>
<path d="M154.948 116.092L116.393 134.79C115.519 133.962 114.575 133.208 113.68 132.417L111.01 130.057C110.151 129.243 109.243 128.481 108.377 127.688C107.511 126.896 106.632 126.119 105.773 125.334L144.328 106.621C145.179 107.428 146.066 108.198 146.932 108.99C147.797 109.782 148.685 110.567 149.572 111.351C150.459 112.135 151.347 112.934 152.242 113.725C153.137 114.517 154.038 115.301 154.948 116.092Z" fill="#2F1728"/>
<path d="M144.326 106.62L105.772 125.333C102.773 122.618 99.8465 119.901 96.9645 117.212C94.0825 114.522 91.2728 111.817 88.4718 109.162C85.6708 106.507 82.9276 103.836 80.2068 101.186C77.486 98.5358 74.788 95.9218 72.0896 93.2931L110.672 74.5358C113.338 77.1483 116.041 79.7816 118.782 82.4359C121.522 85.0901 124.275 87.7512 127.04 90.4194C129.848 93.0814 132.682 95.7671 135.54 98.4764C138.398 101.186 141.332 103.895 144.34 106.605" fill="#2F1728"/>
<path d="M110.849 73.8534L72.2886 92.5884L69.3811 89.7615L107.941 71.012L110.849 73.8534Z" fill="#FF6B71"/>
<path d="M140.989 136.413L102.377 155.142C100.003 150.376 97.5462 145.517 95.0071 140.566C92.4648 135.589 89.8246 130.49 87.0634 125.22C84.3022 119.95 81.455 114.456 78.4434 108.807C75.4318 103.157 72.2611 97.272 68.9304 91.1216L107.505 72.3572C110.833 78.5101 114.009 84.4099 117.033 90.0564C120.038 95.7424 122.935 101.169 125.689 106.447C128.443 111.724 131.09 116.83 133.64 121.8C136.189 126.77 138.634 131.627 141.04 136.433" fill="#2F1728"/>
<path d="M110.85 73.8528C114.288 77.2066 117.771 80.598 121.299 84.0271C124.87 87.4114 128.413 90.8837 132.066 94.3458C135.718 97.808 139.423 101.32 143.28 104.791C147.136 108.262 151.039 111.805 155.079 115.337L231.394 181.928L192.702 242.914L141.009 136.389C138.64 131.618 136.188 126.769 133.609 121.756C131.029 116.743 128.419 111.673 125.658 106.402C122.896 101.132 120.021 95.683 117.002 90.0121C113.982 84.3411 110.804 78.4632 107.474 72.3128L107.926 70.9535L110.85 73.8528ZM192.574 241.374L230.33 181.869L154.946 116.09C150.891 112.559 146.968 109.038 143.139 105.537C139.311 102.036 135.578 98.5545 131.91 95.0782C128.243 91.6019 124.643 88.1893 121.129 84.7453C117.615 81.3013 114.118 77.9296 110.672 74.5639L108.237 72.2558C111.531 78.4145 114.658 84.301 117.648 89.9582C120.638 95.6154 123.491 101.058 126.238 106.328C128.985 111.599 131.602 116.676 134.13 121.64C136.657 126.603 139.129 131.401 141.47 136.187L192.574 241.374Z" fill="#2F1728"/>
<path d="M107.491 72.3713L68.9309 91.1208L69.3827 89.7616L107.943 71.0121L107.491 72.3713Z" fill="#2F1728"/>
<path d="M250.666 418.344L211.968 436.85L228.568 410.45L267.237 391.946L250.666 418.344Z" fill="#2F1728"/>
<path d="M250.666 418.345L211.968 436.85L35.0095 71.5536L73.5837 52.7746L250.666 418.345Z" fill="#FF6B71"/>
<path d="M73.5842 52.7732L35.01 71.5522L54.7674 40.9242L93.2979 22.1464L73.5842 52.7732Z" fill="#2F1728"/>
<path d="M93.2984 22.1465L355.718 251.024L338.77 278.016L256.273 205.963L211.086 277.362L267.238 391.945L250.697 418.372L73.5776 52.7808L93.2984 22.1465ZM192.703 242.914L231.416 181.905L155.101 115.314C151.06 111.777 147.127 108.262 143.302 104.768C139.503 101.296 135.74 97.7855 132.087 94.3234C128.435 90.8612 124.835 87.4487 121.321 84.0046C117.807 80.5606 114.318 77.196 110.871 73.8303L107.926 70.9535L107.276 71.954C110.667 78.1902 113.869 84.1475 116.918 89.8614C119.968 95.5752 122.866 101.06 125.642 106.359C128.419 111.658 131.052 116.764 133.602 121.749C136.151 126.733 138.603 131.582 141.002 136.382L192.703 242.914Z" fill="#FF6B71"/>
<path d="M92.9539 20.9689L356.718 251.121L339.071 279.238L256.568 207.193L211.877 277.814L268.057 392.367L250.745 419.936L72.7435 52.3591L92.9539 20.9689ZM256.252 205.985L338.748 278.038L355.697 251.047L93.3144 22.2043L73.5936 52.8386L250.667 418.343L267.208 391.916L211.085 277.362L256.273 205.963" fill="#2F1728"/>
<path d="M72.7427 52.3592L34.1686 71.1381L54.4156 39.7542L92.9606 20.976L72.7427 52.3592Z" fill="#2F1728"/>
<path d="M250.787 419.892L212.082 438.391L34.1684 71.1393L72.7426 52.3603L250.787 419.892Z" fill="#2F1728"/>
</g>
<defs>
<clipPath id="clip0">
<rect width="235.455" height="404.031" fill="white" transform="translate(-70 171.014) rotate(-46.5331)"/>
</clipPath>
</defs>
</svg>
