<svg width="34" height="34" viewBox="0 0 34 34" fill="none" xmlns="http://www.w3.org/2000/svg">
<path d="M17.002 29.8088C13.517 29.8088 13.1061 29.7904 11.7461 29.7309C10.6856 29.696 9.63874 29.4804 8.6507 29.0934C6.94123 28.4281 5.58948 27.0759 4.92487 25.3661C4.55273 24.3745 4.352 23.3269 4.33129 22.2679C4.25195 20.9107 4.25195 20.4659 4.25195 17.0078C4.25195 13.5129 4.27037 13.1049 4.33129 11.752C4.35245 10.6945 4.55316 9.64824 4.92487 8.65798C5.58876 6.94598 6.9427 5.59257 8.65495 4.92931C9.64471 4.55561 10.6912 4.35436 11.749 4.33431C13.1019 4.25781 13.5467 4.25781 17.002 4.25781C20.5154 4.25781 20.9191 4.27623 22.2579 4.33431C23.3182 4.35453 24.3676 4.55575 25.3604 4.92931C27.0721 5.59332 28.4257 6.94648 29.0904 8.65798C29.4688 9.66268 29.6706 10.7253 29.6869 11.7987C29.7662 13.1559 29.7662 13.5993 29.7662 17.056C29.7662 20.5126 29.7464 20.966 29.6869 22.3076C29.6657 23.3675 29.4644 24.4161 29.0919 25.4086C28.4255 27.1196 27.0717 28.4723 25.3604 29.1373C24.369 29.5088 23.3219 29.7095 22.2635 29.7309C20.9106 29.8088 20.4672 29.8088 17.002 29.8088ZM16.9539 6.5004C13.4886 6.5004 13.1288 6.5174 11.7759 6.57831C10.9684 6.58902 10.1686 6.73804 9.41145 7.0189C8.29336 7.44674 7.40861 8.3279 6.9762 9.44423C6.69318 10.2097 6.54413 11.0181 6.53562 11.8341C6.46054 13.2069 6.46054 13.5667 6.46054 17.0078C6.46054 20.4078 6.47329 20.8201 6.53562 22.1843C6.54831 22.9921 6.69726 23.7919 6.9762 24.5501C7.40925 25.6658 8.29384 26.5462 9.41145 26.9741C10.1681 27.2568 10.9682 27.4059 11.7759 27.4146C13.1472 27.494 13.5085 27.494 16.9539 27.494C20.4289 27.494 20.7888 27.477 22.1304 27.4146C22.9384 27.4049 23.7387 27.2558 24.4962 26.9741C25.6074 26.5425 26.4865 25.6641 26.9187 24.553C27.2012 23.787 27.3501 22.9781 27.3593 22.1616H27.3749C27.4358 20.8073 27.4358 20.4461 27.4358 16.9851C27.4358 13.5242 27.4202 13.1601 27.3593 11.8072C27.3465 11.0004 27.1975 10.2015 26.9187 9.44423C26.4875 8.33155 25.6083 7.4514 24.4962 7.0189C23.7388 6.73662 22.9384 6.58756 22.1304 6.57831C20.7604 6.5004 20.402 6.5004 16.9539 6.5004ZM17.002 23.5514C14.3527 23.5531 11.9635 21.9586 10.9484 19.5118C9.93322 17.0648 10.4922 14.2472 12.3647 12.3731C14.2371 10.4991 17.0542 9.93763 19.502 10.9506C21.9499 11.9636 23.5463 14.3516 23.547 17.0007C23.5431 20.6148 20.6159 23.5443 17.002 23.5514ZM17.002 12.7479C14.6547 12.7479 12.752 14.6508 12.752 16.9979C12.752 19.3452 14.6547 21.2479 17.002 21.2479C19.3492 21.2479 21.252 19.3452 21.252 16.9979C21.2465 14.6529 19.3469 12.7534 17.002 12.7479ZM23.802 11.7378C22.9597 11.7347 22.279 11.0501 22.2805 10.2078C22.2821 9.3655 22.9653 8.68349 23.8077 8.68349C24.6499 8.68349 25.3332 9.36549 25.3349 10.2078C25.3351 10.6142 25.1736 11.004 24.8861 11.2911C24.5985 11.5782 24.2083 11.7389 23.802 11.7378Z" fill="#2F1728"/>
</svg>
