<svg width="34" height="28" viewBox="0 0 34 28" fill="none" xmlns="http://www.w3.org/2000/svg">
<path d="M18.4167 24.5076H12.75V11.069H18.4167V13.3087C19.6245 12.0939 21.4563 11.3697 23.4104 11.3344C26.9246 11.3498 29.7602 13.6104 29.75 16.3884V24.5076H24.0833V16.9484C23.8567 15.697 22.4992 14.7686 20.9001 14.7713C20.2007 14.7888 19.5404 15.0309 19.0717 15.4417C18.6031 15.8526 18.3665 16.3966 18.4167 16.9484V24.5076ZM9.91667 24.5076H4.25V11.069H9.91667V24.5076ZM7.08333 8.82917C5.51853 8.82917 4.25 7.82639 4.25 6.58939C4.25 5.35239 5.51853 4.34961 7.08333 4.34961C8.64814 4.34961 9.91667 5.35239 9.91667 6.58939C9.91667 7.18341 9.61816 7.75311 9.0868 8.17315C8.55545 8.5932 7.83478 8.82917 7.08333 8.82917Z" fill="#FF6B71"/>
</svg>
