<svg width="34" height="34" viewBox="0 0 34 34" fill="none" xmlns="http://www.w3.org/2000/svg">
<path d="M2.83594 17.0026C2.8376 23.9717 7.90535 29.9057 14.7884 30.9978V21.0967H11.1943V17.0026H14.7927V13.8859C14.6317 12.4091 15.1362 10.9373 16.1691 9.86961C17.202 8.80192 18.6564 8.24905 20.1378 8.36094C21.201 8.37813 22.2615 8.47282 23.3111 8.64429V12.1279H21.5204C20.9039 12.0471 20.2841 12.2507 19.8356 12.6813C19.3871 13.1119 19.1584 13.7229 19.2141 14.3421V17.0026H23.1397L22.5121 21.0981H19.2141V30.9978C26.6578 29.8214 31.8777 23.0231 31.0921 15.5279C30.3065 8.0328 23.7902 2.46468 16.2643 2.85745C8.73828 3.25022 2.83714 9.46638 2.83594 17.0026Z" fill="#FF6B71"/>
</svg>
