<svg width="34" height="27" viewBox="0 0 34 27" fill="none" xmlns="http://www.w3.org/2000/svg">
<path d="M18.4167 23.5174H12.75V10.0787H18.4167V12.3185C19.6245 11.1037 21.4563 10.3795 23.4104 10.3441C26.9246 10.3596 29.7602 12.6202 29.75 15.3982V23.5174H24.0833V15.9581C23.8567 14.7068 22.4992 13.7784 20.9001 13.7811C20.2007 13.7985 19.5404 14.0407 19.0717 14.4514C18.6031 14.8623 18.3665 15.4064 18.4167 15.9581V23.5174ZM9.91667 23.5174H4.25V10.0787H9.91667V23.5174ZM7.08333 7.83894C5.51853 7.83894 4.25 6.83615 4.25 5.59916C4.25 4.36216 5.51853 3.35938 7.08333 3.35938C8.64814 3.35938 9.91667 4.36216 9.91667 5.59916C9.91667 6.19318 9.61816 6.76288 9.0868 7.18292C8.55545 7.60297 7.83478 7.83894 7.08333 7.83894Z" fill="#2F1728"/>
</svg>
