<svg width="24" height="24" viewBox="0 0 24 24" fill="none" xmlns="http://www.w3.org/2000/svg">
<path d="M13 20.7824H9V8.90663H13V10.8859C13.8526 9.81241 15.1456 9.17242 16.525 9.14118C19.0056 9.15481 21.0072 11.1525 21 13.6075V20.7824H17V14.1023C16.84 12.9964 15.8818 12.176 14.753 12.1784C14.2593 12.1938 13.7932 12.4078 13.4624 12.7708C13.1316 13.1339 12.9646 13.6147 13 14.1023V20.7824ZM7 20.7824H3V8.90663H7V20.7824ZM5 6.92734C3.89543 6.92734 3 6.04118 3 4.94804C3 3.85491 3.89543 2.96875 5 2.96875C6.10457 2.96875 7 3.85491 7 4.94804C7 5.47298 6.78929 5.97643 6.41421 6.34761C6.03914 6.71881 5.53043 6.92734 5 6.92734Z" fill="#2F1728"/>
</svg>
