<svg width="34" height="34" viewBox="0 0 34 34" fill="none" xmlns="http://www.w3.org/2000/svg">
<path d="M28.3267 9.47522C29.5966 8.71602 30.5469 7.52057 31 6.11206C29.8067 6.82011 28.501 7.31889 27.1396 7.58681C25.252 5.59006 22.2613 5.10413 19.8386 6.40056C17.416 7.697 16.1611 10.4548 16.7752 13.1331C11.8872 12.8876 7.33312 10.5787 4.24626 6.78073C2.63528 9.5594 3.45852 13.1115 6.12759 14.8982C5.16243 14.8672 4.21866 14.6058 3.37501 14.1361C3.37501 14.1616 3.37501 14.1871 3.37501 14.2126C3.37556 17.107 5.41553 19.6003 8.25259 20.1739C7.35735 20.4174 6.41829 20.4533 5.50709 20.2787C6.30496 22.7541 8.58629 24.4498 11.1865 24.5004C9.03294 26.1906 6.37334 27.1074 3.63568 27.1028C3.15043 27.1035 2.66556 27.0756 2.18359 27.0192C4.96365 28.8057 8.19927 29.7538 11.5038 29.7506C16.1013 29.7822 20.5195 27.9697 23.7703 24.7186C27.0211 21.4675 28.8333 17.049 28.8013 12.4516C28.8013 12.1881 28.7952 11.9261 28.7829 11.6654C29.9736 10.8049 31.0011 9.73894 31.8174 8.51756C30.7081 9.00923 29.5316 9.33203 28.3267 9.47522Z" fill="#2F1728"/>
</svg>
